<?xml version="1.0" encoding="UTF-8"?>
<svg id="Layer_1" data-name="Layer 1" xmlns="http://www.w3.org/2000/svg" xmlns:xlink="http://www.w3.org/1999/xlink" viewBox="0 0 1080 1080">
  <defs>
    <style>
      .cls-1 {
        fill: #4e3729;
      }

      .cls-2 {
        fill: url(#Degradado_sin_nombre_117);
      }

      .cls-3 {
        fill: #dabd8b;
      }
    </style>
    <linearGradient id="Degradado_sin_nombre_117" data-name="Degradado sin nombre 117" x1="540" y1="767.45" x2="540" y2="312.55" gradientUnits="userSpaceOnUse">
      <stop offset=".01" stop-color="#e6d08c"/>
      <stop offset=".34" stop-color="#f9e7a4"/>
      <stop offset=".43" stop-color="#f2de9f"/>
      <stop offset=".56" stop-color="#e2c891"/>
      <stop offset=".62" stop-color="#dabd8b"/>
      <stop offset=".62" stop-color="#dcbf8c"/>
      <stop offset=".7" stop-color="#ecd599"/>
      <stop offset=".78" stop-color="#f5e2a1"/>
      <stop offset=".85" stop-color="#f9e7a4"/>
    </linearGradient>
  </defs>
  <circle class="cls-1" cx="540" cy="540" r="540"/>
  <g>
    <path class="cls-3" d="M708.7,746.49l-.15,20.62-34.77-37.19-.45,32.77c-.02,1.65.98,2.84,2.14,3.63-2.4.53-3.81.73-6.42.09,2.07-1.14,2.59-2.37,2.57-4.65l-.19-32.41c-.02-3.31-1.32-5.71-4.36-6.5,2.8-.94,4.66-.58,7.01-.24l32.73,34.89.39-32.13c.01-1.06-2.19-2.29-2.72-2.58,2.77-.63,4.61-.64,7.36.02-1.12.57-2.93,1.14-2.94,2.68l-.19,21.01ZM385.45,745.32l15.25-.14c.47.17,1.6,1.21,1.97.31.29-.7-.09-2.46-.45-2.29l-1.61.79-15.18-.35.1-19.64c5.37-.61,12.49-.93,17.09.14l1.61,2.23c.37.51,1.12-.72,1.03-1.38l-.35-2.43-25.88-.22c.72,1.45,1.38,2.49,1.38,4.05l.13,35.38c0,2.33-.78,3.38-2.79,4.84h18.07s11.55.19,11.55.19c.36-1.93.61-3.41-.29-5.31-.39,1.88-1.26,3.65-3.59,3.81-10.36.73-17.94,1.5-17.97-4.88l-.07-15.1ZM439.08,755.32c.5-5.58-2.39-10.37-7.89-12.41l-9.2-3.42c-3.23-1.2-5.29-3.16-5.81-5.89-.59-3.16.59-6.06,3.33-8.16,4.99-3.83,11.87-2.5,16.14,2.27.79-4.51-2.47-5.38-5.87-5.83-6.13-.81-12.23.92-14.84,6.51-2.23,4.78-1.51,12.88,3.88,15.09l11.86,4.86c3.99,1.63,6.34,4.87,5.95,8.72-.7,6.83-9.21,9.95-17.2,7.63-4.23-1.23-5.98-4.3-6.38-9.05-1.19,3.62-.51,6.89-.5,11.12l17.32-.55c5.81-.18,8.77-6.04,9.2-10.89ZM464.1,724.06c5.23-1.54,10.16.53,15.64-.76l-33.94-.91c-.99-.03-1.6.12-1.96.58-1.98,2.53,6.33-.74,15.17,1.04l.08,39.49c0,1.17-.84,2.13-1.5,2.88,3.04.85,6.11.96,7.31-.13l-.8-42.19ZM530.55,725.6c0-1.23.96-2.18,1.72-2.89-3.34-.8-5.86-.63-7.75,0l.96,32.04c.18,6.07,4.41,11.17,10.59,12.02s13.11-.03,16.81-5.17c-5.32,2.08-9.22,4.45-14.64,2.44-3.81-1.41-7.64-5.29-7.65-10.98l-.04-27.47ZM560.09,760.74l-.06-33.42c0-2.35.83-3.59,2.84-4.61-3.97-.45-6.54-.51-10.49-.06,1.42.9,2.74,1.83,2.73,3.65l-.08,30.55-.93,3.62c1.27,1.89,1.48,3.6.72,6.23l6.54-.08c-1.21-2.44-1.26-3.82-1.26-5.87ZM738.19,762.69l.1-38.72c10.11-1.73,15.22.91,14.02,1.31.45-.15.86-1.55,1.41-3.02h-36.21c.57,1.48.97,2.85,1.41,3.02-1.11-.43,4.49-3.32,14.2-1.04l.09,38.52c0,1.8-1.03,2.84-2.53,3.69,4.24.76,6.59.54,10.4.08-1.91-1.32-2.91-2-2.9-3.85ZM823.7,598.13c8.73-16.71,14.72-34.21,17.55-53.01,1.34-8.88,2.99-17.19,2.31-25.91-7.4,2.54-11.3-.22-12.3,6.21-2.83,18.23-6.8,35.62-14.12,52.52-13.76,31.77-38.34,52.48-70.35,64.95-23.7,9.24-48.58,11.5-73.6,6.13-53.37-11.46-92.42-44.99-119.19-91.6l-12.37-21.54c34.47-16.39,69.05-41.73,65.96-83.15-1.32-17.76-8.44-34.42-21.35-46.1-11.15-10.1-23.04-17.18-37.73-20.33-11.53-2.47-22.72-3.67-34.75-3.64l-113.96.3c-3.35,0-6.2.67-8.67,2.14.36,2.49,1.12,4.47,2.12,6.43,4.06,7.95,5.83,15.85,5.84,25.08l.25,146.87-.43,60.89c-.05,7.25,1.49,14.64-1.53,21.24l-4.58,10,36.27,3.86c8.16.87,18.75-4.61,18.86-7.18.2-4.79-10.66-5.27-9.29-23.06,2.62-33.9,11.99-53.1,41.41-70.57,6.97-4.14,14.02-7.88,22.55-7.64,9.96,16.76,19.72,33.15,32.18,48.02,28.02,33.44,60.4,56.54,102.07,69.63,53.57,16.83,125.91,2.94,164.14-39.23,8.88-9.8,16.5-19.46,22.7-31.31ZM502.99,536.38c-23.32,14.48-45.74,27.13-60.24,51.54-.45.75-1.74,1.35-2.29,1.22s-1.33-1.03-1.34-2.15l-.37-60.76.57-130.37c.02-4.43,3.25-6.81,7.49-6.8l25.48.08,31.41-.11c12.9-.05,25.48,3.36,35.68,11.42,35.22,27.83,32.39,81.34.12,109.57-11.56,10.12-23.57,18.32-36.5,26.35ZM802.12,655.48c-2.32-1.37-5.17-4.03-4.81-6.62l1.25-9.11c-8.44,5.13-18.55,14.98-14.98,21.99,1.05,2.06,3.07,3.38,5.71,3.69l31.73,3.66c13.43,1.55,26.84-.7,39.7-4.26,34.45-9.53,59.75-34.15,73.83-66.56,14.15-32.57,17.1-67.14,11.17-102.1-8.42-49.64-35.52-92.79-85.56-106.73-47.21-13.16-97.78.8-126.77,41.16-29.81,41.52-33.33,90.31-26.03,140.14,1.92,13.08,5.3,25.63,10.3,37.61,4.93,11.82,15.61,18.17,28.33,17.42,13.57-.8,26.78-7.53,32.48-20.84-5.09,1.85-8.02,4.87-12.26,3.65-3.47-1-6.13-4.13-7.25-8.01l-6.66-23.01c-9.43-45.31-6.17-93.07,11.81-135.82,5.23-12.44,12.34-23.45,20.73-33.12,12.32-14.2,29.5-19.25,47.43-17.33,11.21,1.2,20.1,5.06,28.93,11.98,14.39,11.27,23.03,26.37,29.11,43.65,10.6,30.08,17.78,60.85,16.49,93.09-1.21,30.13-8.01,60.09-22.84,86.13-17.08,29.99-51.54,47.32-81.84,29.37ZM680.59,631.81l-.16-112.35.53-119.55c.04-9.88,7.9-11.97,8.2-15.23.05-.59-.37-2.08-1.49-2.08l-50.37-.08c-2.24,0-4.07.77-5.8,2.77,7,10.9,8.5,22.31,8.49,35.25l-.14,153.68-.06,11.97-.08,38.16c0,4.39,3.06,7,6.97,8.18,10.68,3.2,29.74,9.53,33.37,4.07.84-1.26.54-2.77.54-4.78ZM654.5,349.67l39.69-27.83c1.08-2.02,1.81-3.71,1.24-5.44-1.73-5.23-19.61-4.46-29.55-1.66-3.32.94-4.58,4.06-6.37,6.5-4.74,6.49-9.04,12.43-12.92,19.54-1.14,2.1-3.77,5.19-1,7.98,1.81,1.82,6.71,2.44,8.9.9ZM373.75,607.18c7.68-18.56,9.74-37.72,4.28-57.41-10.52-37.95-42.15-45.08-42.94-48.59-.19-.84.29-2.12,1.07-3.16,18.59-24.67,18.5-58.57-.51-83.33-18.88-24.6-43.67-31.72-74.33-31.8l-125.74-.34c-11-.03,2.98,12.08,3.02,29.31l.27,134.05-.51,88.85c-.05,8.25-1.3,15.44-6,22.77,4.52,1.85,8.04,1.99,12.44,1.99h93.01s42.25-.16,42.25-.16c12.73-.05,24.86-.65,37.66-3.66,26.46-6.23,45.91-24.06,56.03-48.52ZM253.95,531.58l-41.08,26.61c-8.53,5.53-16.04,11.89-22.55,19.61-3.64,4.31-4.94,9.61-10,13.88l-.24-198.55c0-3.11,2.09-4.13,4.88-4.15l61.63-.3c16.46-.08,30.21,6.71,41.25,17.99,8.84,9.03,14.32,18.98,16.89,31.46,8.79,42.68-16.55,71.28-50.78,93.45ZM245.25,651.82c-21.46-.98-41.48-.1-62.3.36-1.06.02-3.56-.38-3.57-1.63-.22-34.74,1.85-65.51,32.69-84.36,7.53-4.6,15.1-8.56,23.51-11.75l44.09-16.73c15.76-5.98,29.6-13.78,43.32-23.87,6.11,6.7,11.15,13.22,13.69,21.57,6.98,22.98,4.88,47.38-4.65,69.3-8.72,20.05-30.64,35.67-50.87,43.21-11.49,4.28-23.21,4.47-35.91,3.89ZM600.19,764.23c4.39,4.36,11.5,3.64,16.35.6-5.95,1.43-10.64-.18-13.94-5.04l-10.64-15.63c3.84-2.88,6.97-6.32,7.44-11.02.6-6.05-3.32-10.77-9.47-10.69l-18.7.22c1.9,1.04,3.03,1.93,3.02,3.72l-.15,37.13c0,1.24-1.11,2.21-1.92,2.86,3.43.57,5.69.71,9.36.05-1.88-1.11-2.47-2.42-2.44-4.65l.24-15.72c2.2-.49,6.46-1.28,8.07.89l12.79,17.27ZM592.04,741.69c-3.48,3.36-8.49,3.19-12.79,2.36l-.07-20.28c5.31-.68,10.82.02,13.46,4.27,2.4,3.87,3.48,9.71-.59,13.65ZM519.79,766.36c-2.17-.83-3.25-1.79-4.14-3.97l-17.01-41.29-17.7,44.23c-2.14-.26-1.87,1.9-.01,1.35,1.02-.02,2.53.02,2.99-.44.24-.24-.74-1.24-.59-1.61l7.23-18.23,13.36.11,7.03,17.98c.5,1.29-2.22,3.77,8.85,1.86ZM502.8,744.91l-11.41-.06,5.45-14.4,5.96,14.45ZM352.78,761.54c4.2,5.88,11.62,8.01,17.66,3.42-4.19.52-8.27.73-10.66-2.62l-12.95-18.18c3.98-2.93,6.95-6.37,7.39-11.2.52-5.62-2.96-10.32-8.68-10.34l-18.53-.06c1.5,1.5,2.12,2.66,2.12,4.77l.05,34.43c0,2.23-.46,3.54-2.43,4.64,3.67.77,5.94.63,9.31.05-1.17-1.07-2.04-2.14-2.03-3.76l.11-16.66c2.14-.63,6.56-1.37,8.15.85l10.48,14.65ZM345.77,742.68c-3.26,2.3-7.87,2-11.64,1.33l.38-20.07c4.37-1.68,11.37.28,13.46,4.57,2.25,4.61,3.12,10.42-2.21,14.17ZM653.33,766.72c2.66.34,4.9.59,8.7-.31-2.77-1.01-3.5-2.19-4.48-4.6l-16.68-40.74-18.08,44.69c-1.92.2-.78,1.62,1.01,1.14,1.58-.43,2.27,0,1.78-1.8l7.37-18.88,13.35.38,7.02,20.12ZM644.97,744.88l-11.44.03,5.5-14.48,5.94,14.45Z"/>
    <path class="cls-2" d="M708.7,746.49l-.15,20.62-34.77-37.19-.45,32.77c-.02,1.65.98,2.84,2.14,3.63-2.4.53-3.81.73-6.42.09,2.07-1.14,2.59-2.37,2.57-4.65l-.19-32.41c-.02-3.31-1.32-5.71-4.36-6.5,2.8-.94,4.66-.58,7.01-.24l32.73,34.89.39-32.13c.01-1.06-2.19-2.29-2.72-2.58,2.77-.63,4.61-.64,7.36.02-1.12.57-2.93,1.14-2.94,2.68l-.19,21.01ZM385.45,745.32l15.25-.14c.47.17,1.6,1.21,1.97.31.29-.7-.09-2.46-.45-2.29l-1.61.79-15.18-.35.1-19.64c5.37-.61,12.49-.93,17.09.14l1.61,2.23c.37.51,1.12-.72,1.03-1.38l-.35-2.43-25.88-.22c.72,1.45,1.38,2.49,1.38,4.05l.13,35.38c0,2.33-.78,3.38-2.79,4.84h18.07s11.55.19,11.55.19c.36-1.93.61-3.41-.29-5.31-.39,1.88-1.26,3.65-3.59,3.81-10.36.73-17.94,1.5-17.97-4.88l-.07-15.1ZM439.08,755.32c.5-5.58-2.39-10.37-7.89-12.41l-9.2-3.42c-3.23-1.2-5.29-3.16-5.81-5.89-.59-3.16.59-6.06,3.33-8.16,4.99-3.83,11.87-2.5,16.14,2.27.79-4.51-2.47-5.38-5.87-5.83-6.13-.81-12.23.92-14.84,6.51-2.23,4.78-1.51,12.88,3.88,15.09l11.86,4.86c3.99,1.63,6.34,4.87,5.95,8.72-.7,6.83-9.21,9.95-17.2,7.63-4.23-1.23-5.98-4.3-6.38-9.05-1.19,3.62-.51,6.89-.5,11.12l17.32-.55c5.81-.18,8.77-6.04,9.2-10.89ZM464.1,724.06c5.23-1.54,10.16.53,15.64-.76l-33.94-.91c-.99-.03-1.6.12-1.96.58-1.98,2.53,6.33-.74,15.17,1.04l.08,39.49c0,1.17-.84,2.13-1.5,2.88,3.04.85,6.11.96,7.31-.13l-.8-42.19ZM530.55,725.6c0-1.23.96-2.18,1.72-2.89-3.34-.8-5.86-.63-7.75,0l.96,32.04c.18,6.07,4.41,11.17,10.59,12.02s13.11-.03,16.81-5.17c-5.32,2.08-9.22,4.45-14.64,2.44-3.81-1.41-7.64-5.29-7.65-10.98l-.04-27.47ZM560.09,760.74l-.06-33.42c0-2.35.83-3.59,2.84-4.61-3.97-.45-6.54-.51-10.49-.06,1.42.9,2.74,1.83,2.73,3.65l-.08,30.55-.93,3.62c1.27,1.89,1.48,3.6.72,6.23l6.54-.08c-1.21-2.44-1.26-3.82-1.26-5.87ZM738.19,762.69l.1-38.72c10.11-1.73,15.22.91,14.02,1.31.45-.15.86-1.55,1.41-3.02h-36.21c.57,1.48.97,2.85,1.41,3.02-1.11-.43,4.49-3.32,14.2-1.04l.09,38.52c0,1.8-1.03,2.84-2.53,3.69,4.24.76,6.59.54,10.4.08-1.91-1.32-2.91-2-2.9-3.85ZM823.7,598.13c8.73-16.71,14.72-34.21,17.55-53.01,1.34-8.88,2.99-17.19,2.31-25.91-7.4,2.54-11.3-.22-12.3,6.21-2.83,18.23-6.8,35.62-14.12,52.52-13.76,31.77-38.34,52.48-70.35,64.95-23.7,9.24-48.58,11.5-73.6,6.13-53.37-11.46-92.42-44.99-119.19-91.6l-12.37-21.54c34.47-16.39,69.05-41.73,65.96-83.15-1.32-17.76-8.44-34.42-21.35-46.1-11.15-10.1-23.04-17.18-37.73-20.33-11.53-2.47-22.72-3.67-34.75-3.64l-113.96.3c-3.35,0-6.2.67-8.67,2.14.36,2.49,1.12,4.47,2.12,6.43,4.06,7.95,5.83,15.85,5.84,25.08l.25,146.87-.43,60.89c-.05,7.25,1.49,14.64-1.53,21.24l-4.58,10,36.27,3.86c8.16.87,18.75-4.61,18.86-7.18.2-4.79-10.66-5.27-9.29-23.06,2.62-33.9,11.99-53.1,41.41-70.57,6.97-4.14,14.02-7.88,22.55-7.64,9.96,16.76,19.72,33.15,32.18,48.02,28.02,33.44,60.4,56.54,102.07,69.63,53.57,16.83,125.91,2.94,164.14-39.23,8.88-9.8,16.5-19.46,22.7-31.31ZM502.99,536.38c-23.32,14.48-45.74,27.13-60.24,51.54-.45.75-1.74,1.35-2.29,1.22s-1.33-1.03-1.34-2.15l-.37-60.76.57-130.37c.02-4.43,3.25-6.81,7.49-6.8l25.48.08,31.41-.11c12.9-.05,25.48,3.36,35.68,11.42,35.22,27.83,32.39,81.34.12,109.57-11.56,10.12-23.57,18.32-36.5,26.35ZM802.12,655.48c-2.32-1.37-5.17-4.03-4.81-6.62l1.25-9.11c-8.44,5.13-18.55,14.98-14.98,21.99,1.05,2.06,3.07,3.38,5.71,3.69l31.73,3.66c13.43,1.55,26.84-.7,39.7-4.26,34.45-9.53,59.75-34.15,73.83-66.56,14.15-32.57,17.1-67.14,11.17-102.1-8.42-49.64-35.52-92.79-85.56-106.73-47.21-13.16-97.78.8-126.77,41.16-29.81,41.52-33.33,90.31-26.03,140.14,1.92,13.08,5.3,25.63,10.3,37.61,4.93,11.82,15.61,18.17,28.33,17.42,13.57-.8,26.78-7.53,32.48-20.84-5.09,1.85-8.02,4.87-12.26,3.65-3.47-1-6.13-4.13-7.25-8.01l-6.66-23.01c-9.43-45.31-6.17-93.07,11.81-135.82,5.23-12.44,12.34-23.45,20.73-33.12,12.32-14.2,29.5-19.25,47.43-17.33,11.21,1.2,20.1,5.06,28.93,11.98,14.39,11.27,23.03,26.37,29.11,43.65,10.6,30.08,17.78,60.85,16.49,93.09-1.21,30.13-8.01,60.09-22.84,86.13-17.08,29.99-51.54,47.32-81.84,29.37ZM680.59,631.81l-.16-112.35.53-119.55c.04-9.88,7.9-11.97,8.2-15.23.05-.59-.37-2.08-1.49-2.08l-50.37-.08c-2.24,0-4.07.77-5.8,2.77,7,10.9,8.5,22.31,8.49,35.25l-.14,153.68-.06,11.97-.08,38.16c0,4.39,3.06,7,6.97,8.18,10.68,3.2,29.74,9.53,33.37,4.07.84-1.26.54-2.77.54-4.78ZM654.5,349.67l39.69-27.83c1.08-2.02,1.81-3.71,1.24-5.44-1.73-5.23-19.61-4.46-29.55-1.66-3.32.94-4.58,4.06-6.37,6.5-4.74,6.49-9.04,12.43-12.92,19.54-1.14,2.1-3.77,5.19-1,7.98,1.81,1.82,6.71,2.44,8.9.9ZM373.75,607.18c7.68-18.56,9.74-37.72,4.28-57.41-10.52-37.95-42.15-45.08-42.94-48.59-.19-.84.29-2.12,1.07-3.16,18.59-24.67,18.5-58.57-.51-83.33-18.88-24.6-43.67-31.72-74.33-31.8l-125.74-.34c-11-.03,2.98,12.08,3.02,29.31l.27,134.05-.51,88.85c-.05,8.25-1.3,15.44-6,22.77,4.52,1.85,8.04,1.99,12.44,1.99h93.01s42.25-.16,42.25-.16c12.73-.05,24.86-.65,37.66-3.66,26.46-6.23,45.91-24.06,56.03-48.52ZM253.95,531.58l-41.08,26.61c-8.53,5.53-16.04,11.89-22.55,19.61-3.64,4.31-4.94,9.61-10,13.88l-.24-198.55c0-3.11,2.09-4.13,4.88-4.15l61.63-.3c16.46-.08,30.21,6.71,41.25,17.99,8.84,9.03,14.32,18.98,16.89,31.46,8.79,42.68-16.55,71.28-50.78,93.45ZM245.25,651.82c-21.46-.98-41.48-.1-62.3.36-1.06.02-3.56-.38-3.57-1.63-.22-34.74,1.85-65.51,32.69-84.36,7.53-4.6,15.1-8.56,23.51-11.75l44.09-16.73c15.76-5.98,29.6-13.78,43.32-23.87,6.11,6.7,11.15,13.22,13.69,21.57,6.98,22.98,4.88,47.38-4.65,69.3-8.72,20.05-30.64,35.67-50.87,43.21-11.49,4.28-23.21,4.47-35.91,3.89ZM600.19,764.23c4.39,4.36,11.5,3.64,16.35.6-5.95,1.43-10.64-.18-13.94-5.04l-10.64-15.63c3.84-2.88,6.97-6.32,7.44-11.02.6-6.05-3.32-10.77-9.47-10.69l-18.7.22c1.9,1.04,3.03,1.93,3.02,3.72l-.15,37.13c0,1.24-1.11,2.21-1.92,2.86,3.43.57,5.69.71,9.36.05-1.88-1.11-2.47-2.42-2.44-4.65l.24-15.72c2.2-.49,6.46-1.28,8.07.89l12.79,17.27ZM592.04,741.69c-3.48,3.36-8.49,3.19-12.79,2.36l-.07-20.28c5.31-.68,10.82.02,13.46,4.27,2.4,3.87,3.48,9.71-.59,13.65ZM519.79,766.36c-2.17-.83-3.25-1.79-4.14-3.97l-17.01-41.29-17.7,44.23c-2.14-.26-1.87,1.9-.01,1.35,1.02-.02,2.53.02,2.99-.44.24-.24-.74-1.24-.59-1.61l7.23-18.23,13.36.11,7.03,17.98c.5,1.29-2.22,3.77,8.85,1.86ZM502.8,744.91l-11.41-.06,5.45-14.4,5.96,14.45ZM352.78,761.54c4.2,5.88,11.62,8.01,17.66,3.42-4.19.52-8.27.73-10.66-2.62l-12.95-18.18c3.98-2.93,6.95-6.37,7.39-11.2.52-5.62-2.96-10.32-8.68-10.34l-18.53-.06c1.5,1.5,2.12,2.66,2.12,4.77l.05,34.43c0,2.23-.46,3.54-2.43,4.64,3.67.77,5.94.63,9.31.05-1.17-1.07-2.04-2.14-2.03-3.76l.11-16.66c2.14-.63,6.56-1.37,8.15.85l10.48,14.65ZM345.77,742.68c-3.26,2.3-7.87,2-11.64,1.33l.38-20.07c4.37-1.68,11.37.28,13.46,4.57,2.25,4.61,3.12,10.42-2.21,14.17ZM653.33,766.72c2.66.34,4.9.59,8.7-.31-2.77-1.01-3.5-2.19-4.48-4.6l-16.68-40.74-18.08,44.69c-1.92.2-.78,1.62,1.01,1.14,1.58-.43,2.27,0,1.78-1.8l7.37-18.88,13.35.38,7.02,20.12ZM644.97,744.88l-11.44.03,5.5-14.48,5.94,14.45Z"/>
  </g>
</svg>