<?xml version="1.0" encoding="UTF-8"?>
<svg id="Layer_1" data-name="Layer 1" xmlns="http://www.w3.org/2000/svg" viewBox="0 0 1080 1080">
  <defs>
    <style>
      .cls-1 {
        fill: #4e3729;
      }
    </style>
  </defs>
  <path class="cls-1" d="M728.89,771.21l-.16,23.08-38.93-41.64-.51,36.7c-.03,1.85,1.1,3.18,2.4,4.07-2.69.59-4.27.82-7.19.1,2.32-1.27,2.9-2.66,2.88-5.2l-.21-36.3c-.02-3.71-1.47-6.39-4.89-7.28,3.14-1.05,5.22-.65,7.85-.27l36.64,39.06.44-35.97c.01-1.19-2.45-2.56-3.05-2.89,3.1-.71,5.16-.72,8.24.02-1.25.63-3.28,1.28-3.3,3l-.22,23.52ZM366.95,769.9l17.07-.16c.53.19,1.79,1.36,2.21.34.33-.79-.11-2.76-.5-2.56l-1.8.88-17-.39.11-21.99c6.01-.68,13.98-1.05,19.13.15l1.8,2.5c.41.57,1.26-.81,1.15-1.54l-.39-2.72-28.98-.25c.81,1.62,1.54,2.79,1.55,4.54l.14,39.62c0,2.61-.87,3.79-3.12,5.42h20.23s12.93.21,12.93.21c.4-2.16.69-3.82-.32-5.94-.43,2.11-1.41,4.08-4.02,4.27-11.6.81-20.08,1.68-20.12-5.46l-.08-16.91ZM427,781.1c.56-6.25-2.68-11.61-8.84-13.89l-10.31-3.83c-3.61-1.34-5.93-3.54-6.5-6.6-.66-3.54.66-6.78,3.73-9.14,5.58-4.29,13.29-2.8,18.07,2.54.89-5.05-2.77-6.02-6.57-6.53-6.86-.91-13.69,1.03-16.62,7.29-2.5,5.35-1.69,14.42,4.35,16.89l13.28,5.44c4.47,1.83,7.1,5.45,6.66,9.77-.78,7.65-10.31,11.14-19.26,8.54-4.74-1.38-6.7-4.82-7.15-10.14-1.33,4.05-.57,7.71-.55,12.46l19.39-.62c6.51-.21,9.82-6.76,10.31-12.2ZM455.01,746.1c5.85-1.72,11.38.59,17.51-.85l-38-1.02c-1.11-.03-1.79.13-2.19.65-2.21,2.84,7.09-.83,16.99,1.16l.08,44.22c0,1.31-.95,2.38-1.68,3.22,3.4.96,6.85,1.08,8.19-.14l-.9-47.24ZM529.41,747.82c0-1.37,1.07-2.44,1.92-3.24-3.74-.89-6.56-.7-8.68,0l1.08,35.87c.2,6.8,4.93,12.5,11.85,13.46s14.68-.04,18.82-5.78c-5.95,2.33-10.32,4.98-16.39,2.74-4.26-1.58-8.56-5.93-8.56-12.3l-.04-30.76ZM562.49,787.16l-.06-37.42c0-2.64.93-4.02,3.18-5.17-4.45-.5-7.32-.57-11.75-.07,1.58,1.01,3.07,2.05,3.06,4.09l-.09,34.21-1.04,4.05c1.43,2.12,1.66,4.03.81,6.98l7.32-.09c-1.36-2.73-1.41-4.27-1.41-6.58ZM761.91,789.35l.11-43.35c11.33-1.94,17.05,1.02,15.7,1.47.51-.17.96-1.74,1.58-3.38h-40.54c.63,1.65,1.09,3.19,1.58,3.39-1.25-.48,5.03-3.72,15.9-1.17l.1,43.14c0,2.02-1.15,3.18-2.84,4.13,4.75.85,7.38.6,11.64.09-2.14-1.48-3.25-2.24-3.25-4.31ZM857.67,605.09c9.77-18.71,16.48-38.3,19.65-59.36,1.5-9.94,3.35-19.25,2.58-29.01-8.29,2.84-12.65-.25-13.77,6.96-3.17,20.41-7.61,39.89-15.81,58.81-15.41,35.57-42.93,58.76-78.77,72.73-26.54,10.35-54.39,12.87-82.41,6.86-59.76-12.83-103.49-50.38-133.46-102.56l-13.85-24.12c38.59-18.35,77.32-46.73,73.86-93.1-1.48-19.89-9.45-38.54-23.9-51.62-12.49-11.31-25.79-19.24-42.25-22.76-12.91-2.76-25.44-4.11-38.91-4.08l-127.6.34c-3.75,0-6.94.75-9.7,2.39.4,2.78,1.25,5.01,2.37,7.2,4.55,8.91,6.52,17.75,6.54,28.09l.28,164.45-.48,68.18c-.06,8.11,1.67,16.39-1.72,23.78l-5.13,11.2,40.62,4.32c9.13.97,20.99-5.17,21.11-8.04.22-5.37-11.94-5.9-10.4-25.82,2.93-37.96,13.42-59.46,46.37-79.02,7.8-4.63,15.7-8.83,25.25-8.56,11.15,18.76,22.08,37.12,36.03,53.77,31.38,37.44,67.63,63.31,114.28,77.96,59.99,18.84,140.98,3.29,183.79-43.93,9.94-10.97,18.48-21.79,25.41-35.06ZM498.56,535.95c-26.11,16.22-51.22,30.38-67.45,57.71-.5.84-1.95,1.51-2.57,1.37s-1.49-1.15-1.5-2.4l-.41-68.04.64-145.97c.02-4.96,3.64-7.62,8.39-7.61l28.53.09,35.16-.12c14.45-.05,28.53,3.76,39.95,12.78,39.44,31.16,36.26,91.08.13,122.69-12.95,11.33-26.39,20.51-40.87,29.5ZM833.5,669.3c-2.6-1.54-5.79-4.51-5.39-7.41l1.4-10.2c-9.45,5.74-20.77,16.78-16.77,24.62,1.18,2.3,3.43,3.79,6.39,4.13l35.53,4.09c15.03,1.73,30.06-.78,44.45-4.77,38.57-10.67,66.9-38.23,82.67-74.53,15.84-36.47,19.15-75.18,12.51-114.33-9.43-55.58-39.77-103.89-95.81-119.51-52.86-14.73-109.49.89-141.94,46.08-33.38,46.49-37.32,101.13-29.15,156.91,2.15,14.65,5.93,28.7,11.53,42.12,5.52,13.23,17.48,20.34,31.72,19.51,15.2-.89,29.99-8.43,36.37-23.33-5.7,2.07-8.98,5.46-13.73,4.09-3.88-1.12-6.87-4.63-8.12-8.97l-7.46-25.77c-10.55-50.74-6.91-104.22,13.22-152.08,5.86-13.93,13.82-26.26,23.21-37.08,13.8-15.89,33.03-21.55,53.11-19.41,12.55,1.34,22.51,5.67,32.39,13.41,16.11,12.61,25.78,29.53,32.6,48.88,11.87,33.68,19.91,68.14,18.46,104.23-1.35,33.74-8.97,67.29-25.58,96.44-19.13,33.58-57.71,52.98-91.64,32.89ZM697.42,642.8l-.18-125.8.6-133.86c.05-11.06,8.85-13.4,9.18-17.05.06-.66-.41-2.32-1.67-2.33l-56.4-.09c-2.51,0-4.56.86-6.49,3.1,7.84,12.2,9.52,24.98,9.51,39.47l-.16,172.08-.06,13.4-.09,42.73c0,4.91,3.42,7.84,7.8,9.16,11.96,3.59,33.3,10.68,37.36,4.56.94-1.41.61-3.11.61-5.36ZM668.21,326.89l44.44-31.16c1.21-2.26,2.02-4.15,1.38-6.09-1.94-5.86-21.96-5-33.09-1.86-3.72,1.05-5.13,4.54-7.13,7.28-5.31,7.27-10.12,13.92-14.46,21.88-1.28,2.35-4.22,5.81-1.11,8.94,2.03,2.04,7.51,2.73,9.97,1.01ZM353.85,615.22c8.59-20.78,10.91-42.24,4.8-64.28-11.78-42.49-47.19-50.48-48.08-54.41-.21-.94.33-2.37,1.2-3.54,20.81-27.62,20.72-65.58-.57-93.31-21.14-27.55-48.89-35.51-83.23-35.61l-140.79-.38c-12.32-.03,3.34,13.52,3.38,32.81l.3,150.09-.57,99.49c-.05,9.24-1.45,17.28-6.72,25.5,5.06,2.07,9.01,2.23,13.93,2.23h104.15s47.3-.18,47.3-.18c14.26-.05,27.84-.72,42.17-4.1,29.63-6.98,51.4-26.94,62.73-54.33ZM219.71,530.57l-46,29.8c-9.55,6.19-17.96,13.31-25.25,21.96-4.07,4.83-5.53,10.76-11.19,15.54l-.27-222.32c0-3.48,2.34-4.63,5.46-4.64l69.01-.34c18.43-.09,33.83,7.52,46.18,20.14,9.9,10.11,16.04,21.25,18.91,35.22,9.84,47.79-18.54,79.81-56.86,104.64ZM209.97,665.2c-24.03-1.1-46.44-.12-69.75.41-1.19.03-3.98-.43-3.99-1.82-.24-38.9,2.07-73.35,36.6-94.46,8.43-5.16,16.91-9.58,26.32-13.15l49.37-18.73c17.65-6.7,33.14-15.43,48.5-26.72,6.84,7.5,12.49,14.8,15.33,24.15,7.81,25.73,5.46,53.05-5.21,77.6-9.76,22.45-34.31,39.94-56.96,48.38-12.86,4.79-25.99,5.01-40.21,4.36ZM607.39,791.07c4.91,4.88,12.88,4.08,18.31.67-6.66,1.6-11.91-.2-15.61-5.64l-11.92-17.5c4.3-3.22,7.81-7.08,8.33-12.34.67-6.78-3.71-12.06-10.6-11.97l-20.94.25c2.12,1.17,3.39,2.17,3.38,4.17l-.16,41.58c0,1.39-1.24,2.48-2.15,3.2,3.84.64,6.37.79,10.48.06-2.11-1.25-2.77-2.71-2.73-5.2l.27-17.6c2.46-.55,7.24-1.43,9.04,1l14.32,19.34ZM598.27,765.83c-3.89,3.76-9.51,3.57-14.32,2.64l-.08-22.7c5.94-.76,12.12.02,15.07,4.78,2.68,4.34,3.9,10.87-.66,15.28ZM517.37,793.46c-2.44-.93-3.64-2.01-4.64-4.44l-19.05-46.23-19.82,49.52c-2.39-.3-2.09,2.13-.02,1.52,1.14-.03,2.83.02,3.34-.49.27-.27-.83-1.39-.66-1.81l8.1-20.41,14.96.12,7.87,20.14c.56,1.44-2.49,4.23,9.91,2.09ZM498.35,769.44l-12.78-.06,6.1-16.12,6.68,16.18ZM330.37,788.06c4.71,6.58,13.02,8.97,19.77,3.83-4.69.58-9.26.82-11.94-2.94l-14.5-20.36c4.46-3.29,7.78-7.13,8.27-12.54.58-6.3-3.31-11.56-9.72-11.58l-20.74-.06c1.68,1.68,2.37,2.98,2.37,5.34l.06,38.55c0,2.5-.52,3.96-2.72,5.2,4.11.86,6.65.7,10.42.06-1.31-1.19-2.28-2.4-2.27-4.21l.12-18.65c2.4-.71,7.35-1.53,9.12.95l11.74,16.4ZM322.51,766.95c-3.65,2.57-8.81,2.24-13.04,1.49l.43-22.48c4.9-1.88,12.73.31,15.08,5.12,2.52,5.16,3.5,11.67-2.47,15.87ZM666.89,793.86c2.98.38,5.48.66,9.74-.34-3.1-1.13-3.92-2.45-5.02-5.15l-18.67-45.62-20.24,50.04c-2.15.23-.87,1.82,1.13,1.27,1.77-.48,2.54,0,2-2.02l8.25-21.14,14.95.43,7.87,22.53ZM657.54,769.41l-12.81.04,6.16-16.22,6.65,16.18Z"/>
</svg>